<?xml version="1.0" encoding="UTF-8" standalone="no"?>
<!DOCTYPE svg PUBLIC "-//W3C//DTD SVG 1.1//EN"
 "http://www.w3.org/Graphics/SVG/1.1/DTD/svg11.dtd">
<!-- Generated by graphviz version 8.1.0 (20230707.0739)
 -->
<!-- Pages: 1 -->
<svg width="520pt" height="2811pt"
 viewBox="0.00 0.00 519.62 2810.75" xmlns="http://www.w3.org/2000/svg" xmlns:xlink="http://www.w3.org/1999/xlink">
<g id="graph0" class="graph" transform="scale(1 1) rotate(0) translate(4 2806.75)">
<polygon fill="white" stroke="none" points="-4,4 -4,-2806.75 515.62,-2806.75 515.62,4 -4,4"/>
<!-- (19, 13) -->
<g id="node1" class="node">
<title>(19, 13)</title>
<ellipse fill="none" stroke="black" cx="119.16" cy="-2695.5" rx="50.16" ry="18"/>
<text text-anchor="middle" x="119.16" y="-2690.82" font-family="Times,serif" font-size="14.00">(19, 13)</text>
</g>
<!-- (9, 43) -->
<g id="node2" class="node">
<title>(9, 43)</title>
<ellipse fill="none" stroke="black" cx="63.16" cy="-2606.25" rx="43.84" ry="18"/>
<text text-anchor="middle" x="63.16" y="-2601.57" font-family="Times,serif" font-size="14.00">(9, 43)</text>
</g>
<!-- (19, 13)&#45;&#45;(9, 43) -->
<g id="edge1" class="edge">
<title>(19, 13)&#45;&#45;(9, 43)</title>
<path fill="none" stroke="black" d="M108.36,-2677.68C98.44,-2662.23 83.83,-2639.45 73.92,-2624.02"/>
<text text-anchor="middle" x="110.66" y="-2646.2" font-family="Times,serif" font-size="14.00">212</text>
</g>
<!-- (37, 11) -->
<g id="node3" class="node">
<title>(37, 11)</title>
<ellipse fill="none" stroke="black" cx="175.16" cy="-2606.25" rx="50.16" ry="18"/>
<text text-anchor="middle" x="175.16" y="-2601.57" font-family="Times,serif" font-size="14.00">(37, 11)</text>
</g>
<!-- (19, 13)&#45;&#45;(37, 11) -->
<g id="edge2" class="edge">
<title>(19, 13)&#45;&#45;(37, 11)</title>
<path fill="none" stroke="black" d="M129.95,-2677.68C139.87,-2662.23 154.49,-2639.45 164.39,-2624.02"/>
<text text-anchor="middle" x="166.66" y="-2646.2" font-family="Times,serif" font-size="14.00">136</text>
</g>
<!-- (17, 57) -->
<g id="node5" class="node">
<title>(17, 57)</title>
<ellipse fill="none" stroke="black" cx="53.16" cy="-1624.5" rx="50.16" ry="18"/>
<text text-anchor="middle" x="53.16" y="-1619.83" font-family="Times,serif" font-size="14.00">(17, 57)</text>
</g>
<!-- (9, 43)&#45;&#45;(17, 57) -->
<g id="edge4" class="edge">
<title>(9, 43)&#45;&#45;(17, 57)</title>
<path fill="none" stroke="black" d="M59.99,-2587.94C57.06,-2570.38 53.16,-2542.39 53.16,-2518 53.16,-2518 53.16,-2518 53.16,-1712.75 53.16,-1688.51 53.16,-1660.49 53.16,-1642.88"/>
<text text-anchor="middle" x="66.66" y="-2110.7" font-family="Times,serif" font-size="14.00">138</text>
</g>
<!-- (39, 31) -->
<g id="node6" class="node">
<title>(39, 31)</title>
<ellipse fill="none" stroke="black" cx="131.16" cy="-2517" rx="50.16" ry="18"/>
<text text-anchor="middle" x="131.16" y="-2512.32" font-family="Times,serif" font-size="14.00">(39, 31)</text>
</g>
<!-- (9, 43)&#45;&#45;(39, 31) -->
<g id="edge5" class="edge">
<title>(9, 43)&#45;&#45;(39, 31)</title>
<path fill="none" stroke="black" d="M75.95,-2588.84C88.03,-2573.34 106.05,-2550.21 118.19,-2534.63"/>
<text text-anchor="middle" x="117.66" y="-2556.95" font-family="Times,serif" font-size="14.00">182</text>
</g>
<!-- (37, 11)&#45;&#45;(39, 31) -->
<g id="edge6" class="edge">
<title>(37, 11)&#45;&#45;(39, 31)</title>
<path fill="none" stroke="black" d="M166.67,-2588.43C158.93,-2573.08 147.54,-2550.5 139.76,-2535.07"/>
<text text-anchor="middle" x="170.66" y="-2556.95" font-family="Times,serif" font-size="14.00">142</text>
</g>
<!-- (59, 7) -->
<g id="node7" class="node">
<title>(59, 7)</title>
<ellipse fill="none" stroke="black" cx="243.16" cy="-2517" rx="43.84" ry="18"/>
<text text-anchor="middle" x="243.16" y="-2512.32" font-family="Times,serif" font-size="14.00">(59, 7)</text>
</g>
<!-- (37, 11)&#45;&#45;(59, 7) -->
<g id="edge7" class="edge">
<title>(37, 11)&#45;&#45;(59, 7)</title>
<path fill="none" stroke="black" d="M188.27,-2588.43C200.39,-2572.88 218.28,-2549.91 230.32,-2534.48"/>
<text text-anchor="middle" x="229.66" y="-2556.95" font-family="Times,serif" font-size="14.00">158</text>
</g>
<!-- (1, 0) -->
<g id="node4" class="node">
<title>(1, 0)</title>
<ellipse fill="none" stroke="black" cx="119.16" cy="-2784.75" rx="37.53" ry="18"/>
<text text-anchor="middle" x="119.16" y="-2780.07" font-family="Times,serif" font-size="14.00">(1, 0)</text>
</g>
<!-- (1, 0)&#45;&#45;(19, 13) -->
<g id="edge3" class="edge">
<title>(1, 0)&#45;&#45;(19, 13)</title>
<path fill="none" stroke="black" d="M119.16,-2766.51C119.16,-2751.22 119.16,-2728.99 119.16,-2713.7"/>
<text text-anchor="middle" x="132.66" y="-2735.45" font-family="Times,serif" font-size="14.00">147</text>
</g>
<!-- (9, 83) -->
<g id="node24" class="node">
<title>(9, 83)</title>
<ellipse fill="none" stroke="black" cx="53.16" cy="-1535.25" rx="43.84" ry="18"/>
<text text-anchor="middle" x="53.16" y="-1530.58" font-family="Times,serif" font-size="14.00">(9, 83)</text>
</g>
<!-- (17, 57)&#45;&#45;(9, 83) -->
<g id="edge33" class="edge">
<title>(17, 57)&#45;&#45;(9, 83)</title>
<path fill="none" stroke="black" d="M53.16,-1606.26C53.16,-1590.97 53.16,-1568.74 53.16,-1553.45"/>
<text text-anchor="middle" x="66.66" y="-1575.2" font-family="Times,serif" font-size="14.00">178</text>
</g>
<!-- (35, 55) -->
<g id="node8" class="node">
<title>(35, 55)</title>
<ellipse fill="none" stroke="black" cx="131.16" cy="-1713.75" rx="50.16" ry="18"/>
<text text-anchor="middle" x="131.16" y="-1709.08" font-family="Times,serif" font-size="14.00">(35, 55)</text>
</g>
<!-- (39, 31)&#45;&#45;(35, 55) -->
<g id="edge8" class="edge">
<title>(39, 31)&#45;&#45;(35, 55)</title>
<path fill="none" stroke="black" d="M131.16,-2498.62C131.16,-2481.01 131.16,-2452.99 131.16,-2428.75 131.16,-2428.75 131.16,-2428.75 131.16,-1802 131.16,-1777.76 131.16,-1749.74 131.16,-1732.13"/>
<text text-anchor="middle" x="144.66" y="-2110.7" font-family="Times,serif" font-size="14.00">124</text>
</g>
<!-- (59, 33) -->
<g id="node9" class="node">
<title>(59, 33)</title>
<ellipse fill="none" stroke="black" cx="209.16" cy="-2427.75" rx="50.16" ry="18"/>
<text text-anchor="middle" x="209.16" y="-2423.07" font-family="Times,serif" font-size="14.00">(59, 33)</text>
</g>
<!-- (39, 31)&#45;&#45;(59, 33) -->
<g id="edge9" class="edge">
<title>(39, 31)&#45;&#45;(59, 33)</title>
<path fill="none" stroke="black" d="M145.83,-2499.59C159.68,-2484.09 180.36,-2460.96 194.29,-2445.38"/>
<text text-anchor="middle" x="186.16" y="-2467.7" font-family="Times,serif" font-size="14.00">66</text>
</g>
<!-- (59, 7)&#45;&#45;(59, 33) -->
<g id="edge10" class="edge">
<title>(59, 7)&#45;&#45;(59, 33)</title>
<path fill="none" stroke="black" d="M236.44,-2498.76C230.48,-2483.47 221.82,-2461.24 215.86,-2445.95"/>
<text text-anchor="middle" x="243.66" y="-2467.7" font-family="Times,serif" font-size="14.00">186</text>
</g>
<!-- (79, 7) -->
<g id="node10" class="node">
<title>(79, 7)</title>
<ellipse fill="none" stroke="black" cx="321.16" cy="-2427.75" rx="43.84" ry="18"/>
<text text-anchor="middle" x="321.16" y="-2423.07" font-family="Times,serif" font-size="14.00">(79, 7)</text>
</g>
<!-- (59, 7)&#45;&#45;(79, 7) -->
<g id="edge11" class="edge">
<title>(59, 7)&#45;&#45;(79, 7)</title>
<path fill="none" stroke="black" d="M257.83,-2499.59C271.77,-2483.99 292.63,-2460.66 306.55,-2445.09"/>
<text text-anchor="middle" x="297.16" y="-2467.7" font-family="Times,serif" font-size="14.00">92</text>
</g>
<!-- (35, 55)&#45;&#45;(17, 57) -->
<g id="edge32" class="edge">
<title>(35, 55)&#45;&#45;(17, 57)</title>
<path fill="none" stroke="black" d="M110.65,-1696.95C103.8,-1691.24 96.34,-1684.52 90.16,-1677.75 80.11,-1666.75 70.44,-1652.95 63.51,-1642.3"/>
<text text-anchor="middle" x="103.66" y="-1664.45" font-family="Times,serif" font-size="14.00">124</text>
</g>
<!-- (37, 75) -->
<g id="node23" class="node">
<title>(37, 75)</title>
<ellipse fill="none" stroke="black" cx="131.16" cy="-1446" rx="50.16" ry="18"/>
<text text-anchor="middle" x="131.16" y="-1441.33" font-family="Times,serif" font-size="14.00">(37, 75)</text>
</g>
<!-- (35, 55)&#45;&#45;(37, 75) -->
<g id="edge31" class="edge">
<title>(35, 55)&#45;&#45;(37, 75)</title>
<path fill="none" stroke="black" d="M131.16,-1695.31C131.16,-1647.05 131.16,-1512.08 131.16,-1464.16"/>
<text text-anchor="middle" x="144.66" y="-1575.2" font-family="Times,serif" font-size="14.00">130</text>
</g>
<!-- (53, 67) -->
<g id="node11" class="node">
<title>(53, 67)</title>
<ellipse fill="none" stroke="black" cx="209.16" cy="-1803" rx="50.16" ry="18"/>
<text text-anchor="middle" x="209.16" y="-1798.33" font-family="Times,serif" font-size="14.00">(53, 67)</text>
</g>
<!-- (59, 33)&#45;&#45;(53, 67) -->
<g id="edge12" class="edge">
<title>(59, 33)&#45;&#45;(53, 67)</title>
<path fill="none" stroke="black" d="M209.16,-2409.37C209.16,-2391.76 209.16,-2363.74 209.16,-2339.5 209.16,-2339.5 209.16,-2339.5 209.16,-1891.25 209.16,-1867.01 209.16,-1838.99 209.16,-1821.38"/>
<text text-anchor="middle" x="222.66" y="-2110.7" font-family="Times,serif" font-size="14.00">188</text>
</g>
<!-- (87, 41) -->
<g id="node12" class="node">
<title>(87, 41)</title>
<ellipse fill="none" stroke="black" cx="287.16" cy="-2338.5" rx="50.16" ry="18"/>
<text text-anchor="middle" x="287.16" y="-2333.82" font-family="Times,serif" font-size="14.00">(87, 41)</text>
</g>
<!-- (59, 33)&#45;&#45;(87, 41) -->
<g id="edge13" class="edge">
<title>(59, 33)&#45;&#45;(87, 41)</title>
<path fill="none" stroke="black" d="M223.83,-2410.34C237.68,-2394.84 258.36,-2371.71 272.29,-2356.13"/>
<text text-anchor="middle" x="268.66" y="-2378.45" font-family="Times,serif" font-size="14.00">176</text>
</g>
<!-- (79, 7)&#45;&#45;(87, 41) -->
<g id="edge14" class="edge">
<title>(79, 7)&#45;&#45;(87, 41)</title>
<path fill="none" stroke="black" d="M314.44,-2409.51C308.48,-2394.22 299.82,-2371.99 293.86,-2356.7"/>
<text text-anchor="middle" x="320.66" y="-2378.45" font-family="Times,serif" font-size="14.00">234</text>
</g>
<!-- (107, 19) -->
<g id="node13" class="node">
<title>(107, 19)</title>
<ellipse fill="none" stroke="black" cx="412.16" cy="-2338.5" rx="56.47" ry="18"/>
<text text-anchor="middle" x="412.16" y="-2333.82" font-family="Times,serif" font-size="14.00">(107, 19)</text>
</g>
<!-- (79, 7)&#45;&#45;(107, 19) -->
<g id="edge15" class="edge">
<title>(79, 7)&#45;&#45;(107, 19)</title>
<path fill="none" stroke="black" d="M337.85,-2410.75C354.06,-2395.2 378.57,-2371.71 394.95,-2355.99"/>
<text text-anchor="middle" x="387.66" y="-2378.45" font-family="Times,serif" font-size="14.00">248</text>
</g>
<!-- (53, 67)&#45;&#45;(35, 55) -->
<g id="edge30" class="edge">
<title>(53, 67)&#45;&#45;(35, 55)</title>
<path fill="none" stroke="black" d="M194.11,-1785.68C188.74,-1779.81 182.65,-1773.13 177.16,-1767 166.5,-1755.13 154.61,-1741.6 145.58,-1731.29"/>
<text text-anchor="middle" x="186.16" y="-1753.7" font-family="Times,serif" font-size="14.00">82</text>
</g>
<!-- (63, 81) -->
<g id="node22" class="node">
<title>(63, 81)</title>
<ellipse fill="none" stroke="black" cx="209.16" cy="-1356.75" rx="50.16" ry="18"/>
<text text-anchor="middle" x="209.16" y="-1352.08" font-family="Times,serif" font-size="14.00">(63, 81)</text>
</g>
<!-- (53, 67)&#45;&#45;(63, 81) -->
<g id="edge29" class="edge">
<title>(53, 67)&#45;&#45;(63, 81)</title>
<path fill="none" stroke="black" d="M209.16,-1784.62C209.16,-1767.01 209.16,-1738.99 209.16,-1714.75 209.16,-1714.75 209.16,-1714.75 209.16,-1445 209.16,-1420.76 209.16,-1392.74 209.16,-1375.13"/>
<text text-anchor="middle" x="218.16" y="-1575.2" font-family="Times,serif" font-size="14.00">76</text>
</g>
<!-- (85, 55) -->
<g id="node14" class="node">
<title>(85, 55)</title>
<ellipse fill="none" stroke="black" cx="287.16" cy="-1892.25" rx="50.16" ry="18"/>
<text text-anchor="middle" x="287.16" y="-1887.58" font-family="Times,serif" font-size="14.00">(85, 55)</text>
</g>
<!-- (87, 41)&#45;&#45;(85, 55) -->
<g id="edge16" class="edge">
<title>(87, 41)&#45;&#45;(85, 55)</title>
<path fill="none" stroke="black" d="M287.16,-2320.12C287.16,-2302.51 287.16,-2274.49 287.16,-2250.25 287.16,-2250.25 287.16,-2250.25 287.16,-1980.5 287.16,-1956.26 287.16,-1928.24 287.16,-1910.63"/>
<text text-anchor="middle" x="296.16" y="-2110.7" font-family="Times,serif" font-size="14.00">72</text>
</g>
<!-- (105, 43) -->
<g id="node15" class="node">
<title>(105, 43)</title>
<ellipse fill="none" stroke="black" cx="371.16" cy="-2249.25" rx="56.47" ry="18"/>
<text text-anchor="middle" x="371.16" y="-2244.57" font-family="Times,serif" font-size="14.00">(105, 43)</text>
</g>
<!-- (87, 41)&#45;&#45;(105, 43) -->
<g id="edge17" class="edge">
<title>(87, 41)&#45;&#45;(105, 43)</title>
<path fill="none" stroke="black" d="M302.96,-2321.09C317.88,-2305.59 340.15,-2282.46 355.14,-2266.88"/>
<text text-anchor="middle" x="345.16" y="-2289.2" font-family="Times,serif" font-size="14.00">68</text>
</g>
<!-- (107, 19)&#45;&#45;(105, 43) -->
<g id="edge18" class="edge">
<title>(107, 19)&#45;&#45;(105, 43)</title>
<path fill="none" stroke="black" d="M404.06,-2320.26C396.87,-2304.97 386.42,-2282.74 379.24,-2267.45"/>
<text text-anchor="middle" x="408.66" y="-2289.2" font-family="Times,serif" font-size="14.00">202</text>
</g>
<!-- (137, 41) -->
<g id="node16" class="node">
<title>(137, 41)</title>
<ellipse fill="none" stroke="black" cx="455.16" cy="-2160" rx="56.47" ry="18"/>
<text text-anchor="middle" x="455.16" y="-2155.32" font-family="Times,serif" font-size="14.00">(137, 41)</text>
</g>
<!-- (107, 19)&#45;&#45;(137, 41) -->
<g id="edge19" class="edge">
<title>(107, 19)&#45;&#45;(137, 41)</title>
<path fill="none" stroke="black" d="M419.5,-2320.19C421.76,-2314.59 424.17,-2308.32 426.16,-2302.5 439.37,-2263.73 442.01,-2253.58 449.16,-2213.25 451.19,-2201.74 452.69,-2188.68 453.68,-2178.49"/>
<text text-anchor="middle" x="458.66" y="-2244.57" font-family="Times,serif" font-size="14.00">472</text>
</g>
<!-- (85, 55)&#45;&#45;(53, 67) -->
<g id="edge28" class="edge">
<title>(85, 55)&#45;&#45;(53, 67)</title>
<path fill="none" stroke="black" d="M266.65,-1875.45C259.8,-1869.74 252.34,-1863.02 246.16,-1856.25 236.11,-1845.25 226.44,-1831.45 219.51,-1820.8"/>
<text text-anchor="middle" x="259.66" y="-1842.95" font-family="Times,serif" font-size="14.00">184</text>
</g>
<!-- (77, 85) -->
<g id="node21" class="node">
<title>(77, 85)</title>
<ellipse fill="none" stroke="black" cx="287.16" cy="-1267.5" rx="50.16" ry="18"/>
<text text-anchor="middle" x="287.16" y="-1262.83" font-family="Times,serif" font-size="14.00">(77, 85)</text>
</g>
<!-- (85, 55)&#45;&#45;(77, 85) -->
<g id="edge27" class="edge">
<title>(85, 55)&#45;&#45;(77, 85)</title>
<path fill="none" stroke="black" d="M287.16,-1873.87C287.16,-1856.26 287.16,-1828.24 287.16,-1804 287.16,-1804 287.16,-1804 287.16,-1355.75 287.16,-1331.51 287.16,-1303.49 287.16,-1285.88"/>
<text text-anchor="middle" x="300.66" y="-1575.2" font-family="Times,serif" font-size="14.00">158</text>
</g>
<!-- (105, 43)&#45;&#45;(137, 41) -->
<g id="edge21" class="edge">
<title>(105, 43)&#45;&#45;(137, 41)</title>
<path fill="none" stroke="black" d="M386.96,-2231.84C401.88,-2216.34 424.15,-2193.21 439.14,-2177.63"/>
<text text-anchor="middle" x="433.66" y="-2199.95" font-family="Times,serif" font-size="14.00">186</text>
</g>
<!-- (103, 57) -->
<g id="node17" class="node">
<title>(103, 57)</title>
<ellipse fill="none" stroke="black" cx="371.16" cy="-1981.5" rx="56.47" ry="18"/>
<text text-anchor="middle" x="371.16" y="-1976.83" font-family="Times,serif" font-size="14.00">(103, 57)</text>
</g>
<!-- (105, 43)&#45;&#45;(103, 57) -->
<g id="edge20" class="edge">
<title>(105, 43)&#45;&#45;(103, 57)</title>
<path fill="none" stroke="black" d="M371.16,-2230.81C371.16,-2182.55 371.16,-2047.58 371.16,-1999.66"/>
<text text-anchor="middle" x="380.16" y="-2110.7" font-family="Times,serif" font-size="14.00">68</text>
</g>
<!-- (133, 61) -->
<g id="node18" class="node">
<title>(133, 61)</title>
<ellipse fill="none" stroke="black" cx="455.16" cy="-2070.75" rx="56.47" ry="18"/>
<text text-anchor="middle" x="455.16" y="-2066.07" font-family="Times,serif" font-size="14.00">(133, 61)</text>
</g>
<!-- (137, 41)&#45;&#45;(133, 61) -->
<g id="edge22" class="edge">
<title>(137, 41)&#45;&#45;(133, 61)</title>
<path fill="none" stroke="black" d="M455.16,-2141.76C455.16,-2126.47 455.16,-2104.24 455.16,-2088.95"/>
<text text-anchor="middle" x="468.66" y="-2110.7" font-family="Times,serif" font-size="14.00">108</text>
</g>
<!-- (103, 57)&#45;&#45;(85, 55) -->
<g id="edge26" class="edge">
<title>(103, 57)&#45;&#45;(85, 55)</title>
<path fill="none" stroke="black" d="M355.36,-1964.09C340.34,-1948.49 317.88,-1925.16 302.88,-1909.59"/>
<text text-anchor="middle" x="345.16" y="-1932.2" font-family="Times,serif" font-size="14.00">84</text>
</g>
<!-- (101, 89) -->
<g id="node20" class="node">
<title>(101, 89)</title>
<ellipse fill="none" stroke="black" cx="371.16" cy="-1178.25" rx="56.47" ry="18"/>
<text text-anchor="middle" x="371.16" y="-1173.58" font-family="Times,serif" font-size="14.00">(101, 89)</text>
</g>
<!-- (103, 57)&#45;&#45;(101, 89) -->
<g id="edge25" class="edge">
<title>(103, 57)&#45;&#45;(101, 89)</title>
<path fill="none" stroke="black" d="M371.16,-1963.12C371.16,-1945.51 371.16,-1917.49 371.16,-1893.25 371.16,-1893.25 371.16,-1893.25 371.16,-1266.5 371.16,-1242.26 371.16,-1214.24 371.16,-1196.63"/>
<text text-anchor="middle" x="384.66" y="-1575.2" font-family="Times,serif" font-size="14.00">174</text>
</g>
<!-- (133, 61)&#45;&#45;(103, 57) -->
<g id="edge24" class="edge">
<title>(133, 61)&#45;&#45;(103, 57)</title>
<path fill="none" stroke="black" d="M434.92,-2053.69C428.1,-2047.96 420.58,-2041.29 414.16,-2034.75 403.13,-2023.52 391.86,-2009.73 383.63,-1999.14"/>
<text text-anchor="middle" x="427.66" y="-2021.45" font-family="Times,serif" font-size="14.00">154</text>
</g>
<!-- (125, 77) -->
<g id="node19" class="node">
<title>(125, 77)</title>
<ellipse fill="none" stroke="black" cx="455.16" cy="-1089" rx="56.47" ry="18"/>
<text text-anchor="middle" x="455.16" y="-1084.33" font-family="Times,serif" font-size="14.00">(125, 77)</text>
</g>
<!-- (133, 61)&#45;&#45;(125, 77) -->
<g id="edge23" class="edge">
<title>(133, 61)&#45;&#45;(125, 77)</title>
<path fill="none" stroke="black" d="M455.16,-2052.37C455.16,-2034.76 455.16,-2006.74 455.16,-1982.5 455.16,-1982.5 455.16,-1982.5 455.16,-1177.25 455.16,-1153.01 455.16,-1124.99 455.16,-1107.38"/>
<text text-anchor="middle" x="468.66" y="-1575.2" font-family="Times,serif" font-size="14.00">124</text>
</g>
<!-- (131, 99) -->
<g id="node30" class="node">
<title>(131, 99)</title>
<ellipse fill="none" stroke="black" cx="455.16" cy="-999.75" rx="56.47" ry="18"/>
<text text-anchor="middle" x="455.16" y="-995.08" font-family="Times,serif" font-size="14.00">(131, 99)</text>
</g>
<!-- (125, 77)&#45;&#45;(131, 99) -->
<g id="edge44" class="edge">
<title>(125, 77)&#45;&#45;(131, 99)</title>
<path fill="none" stroke="black" d="M455.16,-1070.76C455.16,-1055.47 455.16,-1033.24 455.16,-1017.95"/>
<text text-anchor="middle" x="468.66" y="-1039.7" font-family="Times,serif" font-size="14.00">148</text>
</g>
<!-- (101, 89)&#45;&#45;(125, 77) -->
<g id="edge43" class="edge">
<title>(101, 89)&#45;&#45;(125, 77)</title>
<path fill="none" stroke="black" d="M383.63,-1160.61C391.86,-1150.02 403.13,-1136.23 414.16,-1125 420.58,-1118.46 428.1,-1111.79 434.92,-1106.06"/>
<text text-anchor="middle" x="427.66" y="-1128.95" font-family="Times,serif" font-size="14.00">180</text>
</g>
<!-- (109, 109) -->
<g id="node29" class="node">
<title>(109, 109)</title>
<ellipse fill="none" stroke="black" cx="378.16" cy="-910.5" rx="62.78" ry="18"/>
<text text-anchor="middle" x="378.16" y="-905.83" font-family="Times,serif" font-size="14.00">(109, 109)</text>
</g>
<!-- (101, 89)&#45;&#45;(109, 109) -->
<g id="edge42" class="edge">
<title>(101, 89)&#45;&#45;(109, 109)</title>
<path fill="none" stroke="black" d="M371.62,-1159.81C372.89,-1111.55 376.44,-976.58 377.7,-928.66"/>
<text text-anchor="middle" x="387.66" y="-1039.7" font-family="Times,serif" font-size="14.00">100</text>
</g>
<!-- (77, 85)&#45;&#45;(101, 89) -->
<g id="edge41" class="edge">
<title>(77, 85)&#45;&#45;(101, 89)</title>
<path fill="none" stroke="black" d="M299.63,-1249.86C307.86,-1239.27 319.13,-1225.48 330.16,-1214.25 336.58,-1207.71 344.1,-1201.04 350.92,-1195.31"/>
<text text-anchor="middle" x="343.66" y="-1218.2" font-family="Times,serif" font-size="14.00">128</text>
</g>
<!-- (89, 109) -->
<g id="node28" class="node">
<title>(89, 109)</title>
<ellipse fill="none" stroke="black" cx="294.16" cy="-821.25" rx="56.47" ry="18"/>
<text text-anchor="middle" x="294.16" y="-816.58" font-family="Times,serif" font-size="14.00">(89, 109)</text>
</g>
<!-- (77, 85)&#45;&#45;(89, 109) -->
<g id="edge40" class="edge">
<title>(77, 85)&#45;&#45;(89, 109)</title>
<path fill="none" stroke="black" d="M287.16,-1249.12C287.16,-1231.51 287.16,-1203.49 287.16,-1179.25 287.16,-1179.25 287.16,-1179.25 287.16,-909.5 287.16,-885.19 289.89,-857.18 291.94,-839.6"/>
<text text-anchor="middle" x="300.66" y="-1039.7" font-family="Times,serif" font-size="14.00">140</text>
</g>
<!-- (63, 81)&#45;&#45;(77, 85) -->
<g id="edge39" class="edge">
<title>(63, 81)&#45;&#45;(77, 85)</title>
<path fill="none" stroke="black" d="M223.58,-1339.21C232.61,-1328.9 244.5,-1315.37 255.16,-1303.5 260.65,-1297.37 266.74,-1290.69 272.11,-1284.82"/>
<text text-anchor="middle" x="264.16" y="-1307.45" font-family="Times,serif" font-size="14.00">78</text>
</g>
<!-- (59, 113) -->
<g id="node27" class="node">
<title>(59, 113)</title>
<ellipse fill="none" stroke="black" cx="215.16" cy="-732" rx="56.47" ry="18"/>
<text text-anchor="middle" x="215.16" y="-727.33" font-family="Times,serif" font-size="14.00">(59, 113)</text>
</g>
<!-- (63, 81)&#45;&#45;(59, 113) -->
<g id="edge38" class="edge">
<title>(63, 81)&#45;&#45;(59, 113)</title>
<path fill="none" stroke="black" d="M209.16,-1338.37C209.16,-1320.76 209.16,-1292.74 209.16,-1268.5 209.16,-1268.5 209.16,-1268.5 209.16,-820.25 209.16,-795.96 211.5,-767.95 213.26,-750.36"/>
<text text-anchor="middle" x="222.66" y="-1039.7" font-family="Times,serif" font-size="14.00">176</text>
</g>
<!-- (37, 75)&#45;&#45;(63, 81) -->
<g id="edge37" class="edge">
<title>(37, 75)&#45;&#45;(63, 81)</title>
<path fill="none" stroke="black" d="M141.51,-1428.2C148.44,-1417.55 158.11,-1403.75 168.16,-1392.75 174.34,-1385.98 181.8,-1379.26 188.65,-1373.55"/>
<text text-anchor="middle" x="181.66" y="-1396.7" font-family="Times,serif" font-size="14.00">132</text>
</g>
<!-- (39, 103) -->
<g id="node26" class="node">
<title>(39, 103)</title>
<ellipse fill="none" stroke="black" cx="134.16" cy="-642.75" rx="56.47" ry="18"/>
<text text-anchor="middle" x="134.16" y="-638.08" font-family="Times,serif" font-size="14.00">(39, 103)</text>
</g>
<!-- (37, 75)&#45;&#45;(39, 103) -->
<g id="edge36" class="edge">
<title>(37, 75)&#45;&#45;(39, 103)</title>
<path fill="none" stroke="black" d="M131.16,-1427.62C131.16,-1410.01 131.16,-1381.99 131.16,-1357.75 131.16,-1357.75 131.16,-1357.75 131.16,-731 131.16,-706.75 132.33,-678.73 133.21,-661.13"/>
<text text-anchor="middle" x="144.66" y="-1039.7" font-family="Times,serif" font-size="14.00">198</text>
</g>
<!-- (9, 83)&#45;&#45;(37, 75) -->
<g id="edge35" class="edge">
<title>(9, 83)&#45;&#45;(37, 75)</title>
<path fill="none" stroke="black" d="M63.51,-1517.45C70.44,-1506.8 80.11,-1493 90.16,-1482 96.34,-1475.23 103.8,-1468.51 110.65,-1462.8"/>
<text text-anchor="middle" x="103.66" y="-1485.95" font-family="Times,serif" font-size="14.00">160</text>
</g>
<!-- (7, 103) -->
<g id="node25" class="node">
<title>(7, 103)</title>
<ellipse fill="none" stroke="black" cx="50.16" cy="-553.5" rx="50.16" ry="18"/>
<text text-anchor="middle" x="50.16" y="-548.83" font-family="Times,serif" font-size="14.00">(7, 103)</text>
</g>
<!-- (9, 83)&#45;&#45;(7, 103) -->
<g id="edge34" class="edge">
<title>(9, 83)&#45;&#45;(7, 103)</title>
<path fill="none" stroke="black" d="M52.21,-1516.87C51.33,-1499.27 50.16,-1471.25 50.16,-1447 50.16,-1447 50.16,-1447 50.16,-641.75 50.16,-617.51 50.16,-589.49 50.16,-571.88"/>
<text text-anchor="middle" x="63.66" y="-1039.7" font-family="Times,serif" font-size="14.00">174</text>
</g>
<!-- (37, 129) -->
<g id="node35" class="node">
<title>(37, 129)</title>
<ellipse fill="none" stroke="black" cx="134.16" cy="-464.25" rx="56.47" ry="18"/>
<text text-anchor="middle" x="134.16" y="-459.57" font-family="Times,serif" font-size="14.00">(37, 129)</text>
</g>
<!-- (7, 103)&#45;&#45;(37, 129) -->
<g id="edge55" class="edge">
<title>(7, 103)&#45;&#45;(37, 129)</title>
<path fill="none" stroke="black" d="M63.43,-536.02C72.13,-525.49 83.93,-511.71 95.16,-500.25 101.4,-493.88 108.57,-487.26 115.06,-481.51"/>
<text text-anchor="middle" x="108.66" y="-504.2" font-family="Times,serif" font-size="14.00">508</text>
</g>
<!-- (39, 103)&#45;&#45;(7, 103) -->
<g id="edge54" class="edge">
<title>(39, 103)&#45;&#45;(7, 103)</title>
<path fill="none" stroke="black" d="M115.06,-625.49C108.57,-619.74 101.4,-613.12 95.16,-606.75 83.93,-595.29 72.13,-581.51 63.43,-570.98"/>
<text text-anchor="middle" x="108.66" y="-593.45" font-family="Times,serif" font-size="14.00">168</text>
</g>
<!-- (39, 103)&#45;&#45;(37, 129) -->
<g id="edge53" class="edge">
<title>(39, 103)&#45;&#45;(37, 129)</title>
<path fill="none" stroke="black" d="M134.16,-624.51C134.16,-590.76 134.16,-516.36 134.16,-482.56"/>
<text text-anchor="middle" x="147.66" y="-548.83" font-family="Times,serif" font-size="14.00">144</text>
</g>
<!-- (59, 113)&#45;&#45;(39, 103) -->
<g id="edge52" class="edge">
<title>(59, 113)&#45;&#45;(39, 103)</title>
<path fill="none" stroke="black" d="M199.92,-714.59C185.53,-699.09 164.06,-675.96 149.6,-660.38"/>
<text text-anchor="middle" x="191.16" y="-682.7" font-family="Times,serif" font-size="14.00">90</text>
</g>
<!-- (59, 137) -->
<g id="node34" class="node">
<title>(59, 137)</title>
<ellipse fill="none" stroke="black" cx="215.16" cy="-375" rx="56.47" ry="18"/>
<text text-anchor="middle" x="215.16" y="-370.32" font-family="Times,serif" font-size="14.00">(59, 137)</text>
</g>
<!-- (59, 113)&#45;&#45;(59, 137) -->
<g id="edge51" class="edge">
<title>(59, 113)&#45;&#45;(59, 137)</title>
<path fill="none" stroke="black" d="M216.11,-713.62C216.98,-696.02 218.16,-668 218.16,-643.75 218.16,-643.75 218.16,-643.75 218.16,-463.25 218.16,-439 216.98,-410.98 216.11,-393.38"/>
<text text-anchor="middle" x="231.66" y="-548.83" font-family="Times,serif" font-size="14.00">128</text>
</g>
<!-- (89, 109)&#45;&#45;(59, 113) -->
<g id="edge50" class="edge">
<title>(89, 109)&#45;&#45;(59, 113)</title>
<path fill="none" stroke="black" d="M276.56,-803.89C270.57,-798.14 263.94,-791.54 258.16,-785.25 247.65,-773.84 236.55,-760.31 228.26,-749.87"/>
<text text-anchor="middle" x="271.66" y="-771.95" font-family="Times,serif" font-size="14.00">190</text>
</g>
<!-- (79, 131) -->
<g id="node33" class="node">
<title>(79, 131)</title>
<ellipse fill="none" stroke="black" cx="294.16" cy="-285.75" rx="56.47" ry="18"/>
<text text-anchor="middle" x="294.16" y="-281.07" font-family="Times,serif" font-size="14.00">(79, 131)</text>
</g>
<!-- (89, 109)&#45;&#45;(79, 131) -->
<g id="edge49" class="edge">
<title>(89, 109)&#45;&#45;(79, 131)</title>
<path fill="none" stroke="black" d="M295.74,-802.88C297.2,-785.29 299.16,-757.28 299.16,-733 299.16,-733 299.16,-733 299.16,-374 299.16,-349.72 297.2,-321.71 295.74,-304.12"/>
<text text-anchor="middle" x="308.16" y="-548.83" font-family="Times,serif" font-size="14.00">92</text>
</g>
<!-- (109, 109)&#45;&#45;(89, 109) -->
<g id="edge48" class="edge">
<title>(109, 109)&#45;&#45;(89, 109)</title>
<path fill="none" stroke="black" d="M361.96,-892.68C346.99,-877.13 324.88,-854.16 310.02,-838.73"/>
<text text-anchor="middle" x="352.16" y="-861.2" font-family="Times,serif" font-size="14.00">92</text>
</g>
<!-- (109, 125) -->
<g id="node32" class="node">
<title>(109, 125)</title>
<ellipse fill="none" stroke="black" cx="378.16" cy="-196.5" rx="62.78" ry="18"/>
<text text-anchor="middle" x="378.16" y="-191.82" font-family="Times,serif" font-size="14.00">(109, 125)</text>
</g>
<!-- (109, 109)&#45;&#45;(109, 125) -->
<g id="edge47" class="edge">
<title>(109, 109)&#45;&#45;(109, 125)</title>
<path fill="none" stroke="black" d="M378.16,-892.12C378.16,-874.51 378.16,-846.49 378.16,-822.25 378.16,-822.25 378.16,-822.25 378.16,-284.75 378.16,-260.51 378.16,-232.49 378.16,-214.88"/>
<text text-anchor="middle" x="387.16" y="-548.83" font-family="Times,serif" font-size="14.00">72</text>
</g>
<!-- (131, 99)&#45;&#45;(109, 109) -->
<g id="edge46" class="edge">
<title>(131, 99)&#45;&#45;(109, 109)</title>
<path fill="none" stroke="black" d="M440.31,-981.93C426.67,-966.48 406.58,-943.7 392.96,-928.27"/>
<text text-anchor="middle" x="436.66" y="-950.45" font-family="Times,serif" font-size="14.00">208</text>
</g>
<!-- (137, 129) -->
<g id="node31" class="node">
<title>(137, 129)</title>
<ellipse fill="none" stroke="black" cx="424.16" cy="-107.25" rx="62.78" ry="18"/>
<text text-anchor="middle" x="424.16" y="-102.58" font-family="Times,serif" font-size="14.00">(137, 129)</text>
</g>
<!-- (131, 99)&#45;&#45;(137, 129) -->
<g id="edge45" class="edge">
<title>(131, 99)&#45;&#45;(137, 129)</title>
<path fill="none" stroke="black" d="M459.59,-981.5C463.69,-963.99 469.16,-936.05 469.16,-911.5 469.16,-911.5 469.16,-911.5 469.16,-195.5 469.16,-168.57 452.01,-141.65 438.89,-124.98"/>
<text text-anchor="middle" x="482.66" y="-548.83" font-family="Times,serif" font-size="14.00">176</text>
</g>
<!-- (139, 140) -->
<g id="node36" class="node">
<title>(139, 140)</title>
<ellipse fill="none" stroke="black" cx="424.16" cy="-18" rx="62.78" ry="18"/>
<text text-anchor="middle" x="424.16" y="-13.32" font-family="Times,serif" font-size="14.00">(139, 140)</text>
</g>
<!-- (137, 129)&#45;&#45;(139, 140) -->
<g id="edge60" class="edge">
<title>(137, 129)&#45;&#45;(139, 140)</title>
<path fill="none" stroke="black" d="M424.16,-89.01C424.16,-73.72 424.16,-51.49 424.16,-36.2"/>
<text text-anchor="middle" x="433.16" y="-57.95" font-family="Times,serif" font-size="14.00">29</text>
</g>
<!-- (109, 125)&#45;&#45;(137, 129) -->
<g id="edge59" class="edge">
<title>(109, 125)&#45;&#45;(137, 129)</title>
<path fill="none" stroke="black" d="M387.24,-178.26C395.31,-162.97 407.03,-140.74 415.09,-125.45"/>
<text text-anchor="middle" x="418.66" y="-147.2" font-family="Times,serif" font-size="14.00">268</text>
</g>
<!-- (79, 131)&#45;&#45;(109, 125) -->
<g id="edge58" class="edge">
<title>(79, 131)&#45;&#45;(109, 125)</title>
<path fill="none" stroke="black" d="M306.63,-268.11C314.86,-257.52 326.13,-243.73 337.16,-232.5 343.45,-226.09 350.79,-219.57 357.51,-213.91"/>
<text text-anchor="middle" x="350.66" y="-236.45" font-family="Times,serif" font-size="14.00">232</text>
</g>
<!-- (59, 137)&#45;&#45;(79, 131) -->
<g id="edge57" class="edge">
<title>(59, 137)&#45;&#45;(79, 131)</title>
<path fill="none" stroke="black" d="M228.26,-357.13C236.55,-346.69 247.65,-333.16 258.16,-321.75 263.94,-315.46 270.57,-308.86 276.56,-303.11"/>
<text text-anchor="middle" x="271.66" y="-325.7" font-family="Times,serif" font-size="14.00">154</text>
</g>
<!-- (37, 129)&#45;&#45;(59, 137) -->
<g id="edge56" class="edge">
<title>(37, 129)&#45;&#45;(59, 137)</title>
<path fill="none" stroke="black" d="M147.15,-446.28C155.4,-435.81 166.5,-422.27 177.16,-411 183.2,-404.61 190.18,-397.99 196.5,-392.24"/>
<text text-anchor="middle" x="190.66" y="-414.95" font-family="Times,serif" font-size="14.00">150</text>
</g>
</g>
</svg>
